<?xml version="1.0" encoding="UTF-8" standalone="no"?>
<svg
   xmlns:dc="http://purl.org/dc/elements/1.1/"
   xmlns:cc="http://creativecommons.org/ns#"
   xmlns:rdf="http://www.w3.org/1999/02/22-rdf-syntax-ns#"
   xmlns:svg="http://www.w3.org/2000/svg"
   xmlns="http://www.w3.org/2000/svg"
   xmlns:sodipodi="http://sodipodi.sourceforge.net/DTD/sodipodi-0.dtd"
   xmlns:inkscape="http://www.inkscape.org/namespaces/inkscape"
   version="1.1"
   id="Layer_1"
   x="0px"
   y="0px"
   viewBox="0 0 512.021 512.021"
   style="enable-background:new 0 0 512.021 512.021;"
   xml:space="preserve"
   sodipodi:docname="icosaedro.svg"
   inkscape:version="1.0 (4035a4f, 2020-05-01)"><metadata
   id="metadata51"><rdf:RDF><cc:Work
       rdf:about=""><dc:format>image/svg+xml</dc:format><dc:type
         rdf:resource="http://purl.org/dc/dcmitype/StillImage" /><dc:title></dc:title></cc:Work></rdf:RDF></metadata><defs
   id="defs49"><rect
     id="rect894"
     height="135.81762"
     width="119.33114"
     y="170.96589"
     x="-155.82829" /><rect
     id="rect888"
     height="138.15081"
     width="96.549242"
     y="160.28053"
     x="-153.15695" /><rect
     id="rect882"
     height="93.496974"
     width="67.674"
     y="127.33397"
     x="-209.25513" /><rect
     id="rect876"
     height="76.578474"
     width="84.5925"
     y="113.08682"
     x="-203.022" /><rect
     id="rect864"
     height="108.63458"
     width="89.935184"
     y="99.730105"
     x="570.77676" /><rect
     id="rect858"
     height="45.412816"
     width="44.522368"
     y="212.81692"
     x="228.84497" /><rect
     x="204.92946"
     y="240.54398"
     width="132.53273"
     height="124.3589"
     id="rect57" /></defs><sodipodi:namedview
   inkscape:document-rotation="0"
   pagecolor="#ffffff"
   bordercolor="#666666"
   borderopacity="1"
   objecttolerance="10"
   gridtolerance="10"
   guidetolerance="10"
   inkscape:pageopacity="0"
   inkscape:pageshadow="2"
   inkscape:window-width="1440"
   inkscape:window-height="855"
   id="namedview47"
   showgrid="false"
   inkscape:zoom="1.3964255"
   inkscape:cx="331.1673"
   inkscape:cy="246.1656"
   inkscape:window-x="1280"
   inkscape:window-y="91"
   inkscape:window-maximized="0"
   inkscape:current-layer="Layer_1" />
<g
   id="g14"
   style="fill:#ffffff;stroke:#000000;stroke-width:3.9;stroke-linecap:round;stroke-miterlimit:1;stroke-dasharray:93.6, 93.6;stroke-dashoffset:0"
   transform="rotate(180,256.13544,256.23015)">
	<g
   id="g12"
   style="fill:#ffffff;stroke:#000000;stroke-width:3.9;stroke-linecap:round;stroke-miterlimit:1;stroke-dasharray:93.6, 93.6;stroke-dashoffset:0">
		<path
   d="m 490.421,137.707 c -0.085,-1.003 -0.149,-2.005 -0.555,-2.987 -0.107,-0.256 -0.32,-0.427 -0.448,-0.683 -0.277,-0.533 -0.597,-0.981 -0.96,-1.472 -0.725,-1.003 -1.536,-1.835 -2.517,-2.517 -0.256,-0.171 -0.363,-0.491 -0.64,-0.64 l -224,-128 c -3.285,-1.877 -7.296,-1.877 -10.581,0 l -224,128 c -0.256,0.171 -0.363,0.469 -0.619,0.64 -1.024,0.704 -1.899,1.557 -2.645,2.624 -0.299,0.427 -0.597,0.811 -0.832,1.28 -0.149,0.277 -0.384,0.469 -0.512,0.768 -0.469,1.173 -0.619,2.389 -0.661,3.584 0,0.128 -0.107,0.256 -0.107,0.384 v 0.171 c 0,0.021 0,0.021 0,0.043 v 234.304 c 0,0.021 0,0.064 0,0.085 v 0.064 c 0,0.213 0.149,0.405 0.171,0.619 0.085,1.493 0.32,2.987 1.045,4.352 0.043,0.085 0.128,0.107 0.171,0.192 0.277,0.491 0.768,0.811 1.131,1.259 0.789,0.981 1.557,1.941 2.603,2.603 0.107,0.064 0.149,0.192 0.235,0.235 l 224,128 c 1.664,0.939 3.477,1.408 5.312,1.408 1.835,0 3.648,-0.469 5.291,-1.408 l 224,-128 c 0.107,-0.064 0.149,-0.192 0.256,-0.256 0.981,-0.597 1.664,-1.493 2.411,-2.389 0.427,-0.512 1.003,-0.896 1.323,-1.472 0.043,-0.064 0.107,-0.107 0.149,-0.171 0.576,-1.109 0.683,-2.325 0.853,-3.52 0.064,-0.491 0.384,-0.939 0.384,-1.451 V 138.688 c -0.002,-0.341 -0.236,-0.64 -0.258,-0.981 z M 455.52,136.981 377.269,168.277 291.211,43.093 Z M 256.011,29.504 353.078,170.688 H 158.944 Z M 220.747,43.115 134.71,168.278 56.48,136.981 Z m -178.07,111.317 80.768,32.32 -80.768,145.408 z m 95.958,48.96 98.325,178.773 -187.712,-17.877 z m 106.709,279.573 -165.12,-94.336 165.12,15.573 z M 256.011,372.544 156.726,192.021 h 198.571 z m 10.666,110.421 v -78.571 l 165.035,-15.723 z m 8.32,-100.608 98.411,-178.901 89.365,160.853 z m 194.347,-50.154 -80.811,-145.451 80.811,-32.32 z"
   id="path10"
   style="fill:#ffffff;stroke:#000000;stroke-width:3.9;stroke-linecap:round;stroke-miterlimit:1;stroke-dasharray:93.6, 93.6;stroke-dashoffset:0" />
	</g>
</g>
<g
   id="g16">
</g>
<g
   id="g18">
</g>
<g
   id="g20">
</g>
<g
   id="g22">
</g>
<g
   id="g24">
</g>
<g
   id="g26">
</g>
<g
   id="g28">
</g>
<g
   id="g30">
</g>
<g
   id="g32">
</g>
<g
   id="g34">
</g>
<g
   id="g36">
</g>
<g
   id="g38">
</g>
<g
   id="g40">
</g>
<g
   id="g42">
</g>
<g
   id="g44">
</g>
<text
   style="fill:black;fill-opacity:1;line-height:1.25;stroke:none;font-family:MONSHTER;font-style:normal;font-weight:normal;font-size:64px;white-space:pre;shape-inside:url(#rect858);-inkscape-font-specification:MONSHTER;font-stretch:normal;font-variant:normal;"
   id="text856"
   xml:space="preserve" /><text
   style="font-style:normal;font-weight:normal;font-size:64px;line-height:1.25;font-family:MONSHTER;white-space:pre;shape-inside:url(#rect864);fill:#000000;fill-opacity:1;stroke:none;-inkscape-font-specification:MONSHTER;font-stretch:normal;font-variant:normal;"
   id="text862"
   xml:space="preserve" /><text
   style="fill:black;fill-opacity:1;line-height:1.25;stroke:none;font-family:MONSHTER;font-style:normal;font-weight:normal;font-size:64px;white-space:pre;shape-inside:url(#rect876);-inkscape-font-specification:MONSHTER;font-stretch:normal;font-variant:normal;"
   id="text874"
   xml:space="preserve" /><text
   style="fill:black;fill-opacity:1;line-height:1.25;stroke:none;font-family:Kailasa;font-style:normal;font-weight:normal;font-size:40px;white-space:pre;shape-inside:url(#rect882);-inkscape-font-specification:Kailasa;font-stretch:normal;font-variant:normal;"
   id="text880"
   xml:space="preserve" /><text
   transform="matrix(1.2239856,0,0,1.088018,389.87826,-27.032903)"
   style="font-style:normal;font-variant:normal;font-weight:normal;font-stretch:normal;font-size:120px;line-height:1.25;font-family:MONSHTER;-inkscape-font-specification:'MONSHTER, Normal';font-variant-ligatures:normal;font-variant-caps:normal;font-variant-numeric:normal;font-variant-east-asian:normal;white-space:pre;shape-inside:url(#rect888);fill:#000000;fill-opacity:1;stroke:none;"
   id="text886"
   xml:space="preserve"><tspan
     x="-153.15625"
     y="282.20125"><tspan
       style="font-style:normal;font-variant:normal;font-weight:normal;font-stretch:normal;font-size:120px;font-family:MONSHTER;-inkscape-font-specification:'MONSHTER, Normal';font-variant-ligatures:normal;font-variant-caps:normal;font-variant-numeric:normal;font-variant-east-asian:normal">J</tspan></tspan></text><text
   transform="matrix(1.1769375,0,0,1.1408287,434.04408,-16.556)"
   style="font-style:normal;font-variant:normal;font-weight:normal;font-stretch:normal;font-size:120px;line-height:1.25;font-family:MONSHTER;-inkscape-font-specification:'MONSHTER, Normal';font-variant-ligatures:normal;font-variant-caps:normal;font-variant-numeric:normal;font-variant-east-asian:normal;white-space:pre;shape-inside:url(#rect894);fill:#000000;fill-opacity:1;stroke:none;"
   id="text892"
   xml:space="preserve"><tspan
     x="-155.82812"
     y="292.8868"><tspan
       style="font-style:normal;font-variant:normal;font-weight:normal;font-stretch:normal;font-size:120px;font-family:MONSHTER;-inkscape-font-specification:'MONSHTER, Normal';font-variant-ligatures:normal;font-variant-caps:normal;font-variant-numeric:normal;font-variant-east-asian:normal">G</tspan></tspan></text></svg>
